<svg id="visual" viewBox="0 0 900 300" width="900" height="300" xmlns="http://www.w3.org/2000/svg" xmlns:xlink="http://www.w3.org/1999/xlink" version="1.1"><rect x="0" y="0" width="900" height="300" fill="#222831"></rect><path d="M0 192L21.5 196.7C43 201.3 86 210.7 128.8 214.7C171.7 218.7 214.3 217.3 257.2 210.8C300 204.3 343 192.7 385.8 191.5C428.7 190.3 471.3 199.7 514.2 204.3C557 209 600 209 642.8 206.7C685.7 204.3 728.3 199.7 771.2 198.8C814 198 857 201 878.5 202.5L900 204L900 301L878.5 301C857 301 814 301 771.2 301C728.3 301 685.7 301 642.8 301C600 301 557 301 514.2 301C471.3 301 428.7 301 385.8 301C343 301 300 301 257.2 301C214.3 301 171.7 301 128.8 301C86 301 43 301 21.5 301L0 301Z" fill="#393e46"></path><path d="M0 201L21.5 205.7C43 210.3 86 219.7 128.8 220.8C171.7 222 214.3 215 257.2 216.5C300 218 343 228 385.8 229.5C428.7 231 471.3 224 514.2 224C557 224 600 231 642.8 233C685.7 235 728.3 232 771.2 226.8C814 221.7 857 214.3 878.5 210.7L900 207L900 301L878.5 301C857 301 814 301 771.2 301C728.3 301 685.7 301 642.8 301C600 301 557 301 514.2 301C471.3 301 428.7 301 385.8 301C343 301 300 301 257.2 301C214.3 301 171.7 301 128.8 301C86 301 43 301 21.5 301L0 301Z" fill="#3f5768"></path><path d="M0 237L21.5 237.3C43 237.7 86 238.3 128.8 237.3C171.7 236.3 214.3 233.7 257.2 233.2C300 232.7 343 234.3 385.8 234.8C428.7 235.3 471.3 234.7 514.2 237.5C557 240.3 600 246.7 642.8 245.5C685.7 244.3 728.3 235.7 771.2 230.8C814 226 857 225 878.5 224.5L900 224L900 301L878.5 301C857 301 814 301 771.2 301C728.3 301 685.7 301 642.8 301C600 301 557 301 514.2 301C471.3 301 428.7 301 385.8 301C343 301 300 301 257.2 301C214.3 301 171.7 301 128.8 301C86 301 43 301 21.5 301L0 301Z" fill="#3a7288"></path><path d="M0 262L21.5 262.5C43 263 86 264 128.8 264.2C171.7 264.3 214.3 263.7 257.2 264C300 264.3 343 265.7 385.8 263.7C428.7 261.7 471.3 256.3 514.2 252.8C557 249.3 600 247.7 642.8 247C685.7 246.3 728.3 246.7 771.2 245.8C814 245 857 243 878.5 242L900 241L900 301L878.5 301C857 301 814 301 771.2 301C728.3 301 685.7 301 642.8 301C600 301 557 301 514.2 301C471.3 301 428.7 301 385.8 301C343 301 300 301 257.2 301C214.3 301 171.7 301 128.8 301C86 301 43 301 21.5 301L0 301Z" fill="#278fa2"></path><path d="M0 284L21.5 282.8C43 281.7 86 279.3 128.8 277.3C171.7 275.3 214.3 273.7 257.2 272.2C300 270.7 343 269.3 385.8 271.5C428.7 273.7 471.3 279.3 514.2 281.8C557 284.3 600 283.7 642.8 281C685.7 278.3 728.3 273.7 771.2 272C814 270.3 857 271.7 878.5 272.3L900 273L900 301L878.5 301C857 301 814 301 771.2 301C728.3 301 685.7 301 642.8 301C600 301 557 301 514.2 301C471.3 301 428.7 301 385.8 301C343 301 300 301 257.2 301C214.3 301 171.7 301 128.8 301C86 301 43 301 21.5 301L0 301Z" fill="#00adb5"></path></svg>